<svg viewBox="0 0 18 17" xmlns="http://www.w3.org/2000/svg">
<path d="M8.52612 5.94564V7.78513C8.31489 7.7496 8.11981 7.6463 7.96848 7.48985C7.81715 7.3334 7.71724 7.13172 7.68287 6.91333C7.69838 6.67773 7.7899 6.45432 7.94278 6.27887C8.09567 6.10342 8.30108 5.98608 8.52612 5.94564ZM9.79099 11.0544C10.0022 11.0188 10.1973 10.9155 10.3486 10.7591C10.5 10.6026 10.5999 10.4009 10.6342 10.1826C10.6099 9.95473 10.5144 9.74129 10.3623 9.57455C10.2101 9.40782 10.0096 9.29686 9.79099 9.25846V11.0544ZM17.3802 8.5C17.3802 10.1811 16.898 11.8245 15.9946 13.2223C15.0912 14.6202 13.8072 15.7096 12.3048 16.353C10.8025 16.9963 9.14943 17.1646 7.55459 16.8367C5.95974 16.5087 4.49478 15.6992 3.34496 14.5104C2.19514 13.3217 1.4121 11.8071 1.09487 10.1583C0.777636 8.50943 0.940452 6.80036 1.56273 5.24719C2.18501 3.69402 3.2388 2.3665 4.59084 1.43251C5.94289 0.498516 7.53246 0 9.15856 0C11.3384 0.00230787 13.4283 0.898582 14.9697 2.49214C16.5111 4.0857 17.378 6.24637 17.3802 8.5ZM9.79099 7.88102V5.9282C10.0172 5.95512 10.2265 6.06486 10.3812 6.23757C10.5359 6.41028 10.6257 6.63453 10.6342 6.86974C10.6342 7.04315 10.7009 7.20946 10.8195 7.33208C10.9381 7.4547 11.0989 7.52359 11.2667 7.52359C11.4344 7.52359 11.5953 7.4547 11.7139 7.33208C11.8325 7.20946 11.8991 7.04315 11.8991 6.86974C11.8856 6.28693 11.6619 5.73039 11.2719 5.30938C10.8818 4.88838 10.3536 4.63335 9.79099 4.59436V4.14102C9.79099 3.96761 9.72436 3.80131 9.60575 3.67869C9.48715 3.55607 9.32629 3.48718 9.15856 3.48718C8.99082 3.48718 8.82996 3.55607 8.71136 3.67869C8.59275 3.80131 8.52612 3.96761 8.52612 4.14102V4.61179C7.9709 4.66334 7.45221 4.91994 7.06506 5.33461C6.67791 5.74928 6.4482 6.29426 6.418 6.86974C6.45016 7.44369 6.68074 7.98657 7.0677 8.39944C7.45467 8.81231 7.97226 9.06767 8.52612 9.11897V11.1154C8.30132 11.0887 8.09304 10.9802 7.93854 10.8093C7.78404 10.6384 7.69341 10.4162 7.68287 10.1826C7.68287 10.0092 7.61624 9.84284 7.49763 9.72022C7.37903 9.5976 7.21817 9.52872 7.05044 9.52872C6.8827 9.52872 6.72184 9.5976 6.60324 9.72022C6.48463 9.84284 6.418 10.0092 6.418 10.1826C6.43353 10.7638 6.65818 11.3183 7.04803 11.7374C7.43788 12.1566 7.96491 12.4104 8.52612 12.4492V12.859C8.52612 13.0324 8.59275 13.1987 8.71136 13.3213C8.82996 13.4439 8.99082 13.5128 9.15856 13.5128C9.32629 13.5128 9.48715 13.4439 9.60575 13.3213C9.72436 13.1987 9.79099 13.0324 9.79099 12.859V12.3882C10.3449 12.3369 10.8624 12.0815 11.2494 11.6687C11.6364 11.2558 11.867 10.7129 11.8991 10.139C11.8689 9.56349 11.6392 9.01851 11.252 8.60384C10.8649 8.18917 10.3462 7.93257 9.79099 7.88102Z"/>
</svg>
