<svg viewBox="0 0 18 12" xmlns="http://www.w3.org/2000/svg">
<path d="M7.63081 0C9.43322 5.38258e-05 10.8944 1.46121 10.8944 3.26364C10.8944 4.13302 10.5538 4.92247 9.99965 5.50739C10.5538 6.09231 10.8944 6.88176 10.8944 7.75114C10.8944 9.55357 9.43322 11.0147 7.63081 11.0148C5.8284 11.0147 4.36719 9.55357 4.36719 7.75114C4.36719 6.88186 4.70749 6.0923 5.26158 5.50739C4.70749 4.92249 4.36719 4.13292 4.36719 3.26364C4.36719 1.46121 5.8284 4.10014e-05 7.63081 0ZM8.3523 6.33724C8.05288 6.21322 7.72319 6.18079 7.40532 6.24402C7.08749 6.30726 6.79546 6.46346 6.56631 6.69261C6.33721 6.92176 6.18133 7.21382 6.11812 7.53163C6.05492 7.84945 6.08733 8.17883 6.21134 8.47821C6.33535 8.77757 6.54511 9.0336 6.81451 9.21364C7.08398 9.3937 7.40114 9.48973 7.72523 9.48973C8.15977 9.48969 8.57649 9.31693 8.88375 9.00967C9.191 8.70237 9.36382 8.28569 9.36382 7.85114C9.36381 7.5271 9.26774 7.21026 9.08773 6.94081C8.9077 6.67137 8.65167 6.46128 8.3523 6.33724ZM8.3523 1.65532C8.05288 1.5313 7.72319 1.49887 7.40532 1.5621C7.08748 1.62533 6.79546 1.78154 6.56631 2.01069C6.33718 2.23985 6.18134 2.53187 6.11812 2.84971C6.0549 3.16755 6.08734 3.49689 6.21134 3.79629C6.33534 4.09565 6.54512 4.35168 6.81451 4.53172C7.08398 4.71178 7.40114 4.80781 7.72523 4.80781C8.15973 4.80777 8.57649 4.63537 8.88375 4.32815C9.19106 4.02084 9.36382 3.60381 9.36382 3.16922C9.36379 2.84518 9.26775 2.52832 9.08773 2.25889C8.90769 1.98944 8.65168 1.77935 8.3523 1.65532Z"/>
<path d="M13.7647 5.08887C13.5909 5.08887 13.4242 5.15793 13.3012 5.28085C13.1783 5.40377 13.1093 5.57049 13.1093 5.74432C13.1093 5.91816 13.1783 6.08488 13.3012 6.2078C13.4242 6.33072 13.5909 6.39978 13.7647 6.39978H14.3265C14.4507 6.39978 14.5698 6.4491 14.6576 6.53691C14.7454 6.62471 14.7947 6.74379 14.7947 6.86796V7.42978C14.7947 7.60362 14.8638 7.77033 14.9867 7.89325C15.1096 8.01618 15.2763 8.08523 15.4502 8.08523C15.624 8.08523 15.7907 8.01618 15.9136 7.89325C16.0365 7.77033 16.1056 7.60362 16.1056 7.42978V6.86796C16.1056 6.74379 16.1549 6.62471 16.2427 6.53691C16.3305 6.4491 16.4496 6.39978 16.5738 6.39978H17.1356C17.3094 6.39978 17.4762 6.33072 17.5991 6.2078C17.722 6.08488 17.791 5.91816 17.791 5.74432C17.791 5.57049 17.722 5.40377 17.5991 5.28085C17.4762 5.15793 17.3094 5.08887 17.1356 5.08887H16.5738C16.4496 5.08887 16.3305 5.03954 16.2427 4.95174C16.1549 4.86394 16.1056 4.74486 16.1056 4.62069V4.05887C16.1056 3.88503 16.0365 3.71832 15.9136 3.59539C15.7907 3.47247 15.624 3.40342 15.4502 3.40342C15.2763 3.40342 15.1096 3.47247 14.9867 3.59539C14.8638 3.71832 14.7947 3.88503 14.7947 4.05887V4.62069C14.7947 4.74486 14.7454 4.86394 14.6576 4.95174C14.5698 5.03954 14.4507 5.08887 14.3265 5.08887H13.7647Z"/>
<path d="M0.802257 0.200569C1.015 0.200569 1.21928 0.27349 1.36971 0.403501C1.52003 0.533466 1.60447 0.709766 1.60451 0.893527V10.1372C1.6045 10.3209 1.52002 10.4972 1.36971 10.6272C1.21928 10.7572 1.015 10.8305 0.802257 10.8305C0.589533 10.8305 0.385682 10.7572 0.235262 10.6272C0.0848426 10.4972 1.41926e-05 10.321 0 10.1372V0.893527C4.8052e-05 0.70972 0.0848728 0.533475 0.235262 0.403501C0.385676 0.273536 0.589563 0.200581 0.802257 0.200569Z"/>
</svg>
