<svg viewBox="0 0 16 16" xmlns="http://www.w3.org/2000/svg">
<path d="M7.99353 4.08435C6.28496 4.08435 4.89978 5.34908 4.89978 6.90908V15.3833H11.0873V6.90908C11.0873 5.34908 9.70211 4.08435 7.99353 4.08435Z" fill-opacity=".5"/>
<path d="M0.77478 6.90926H3.86853C4.04077 2.01379 11.697 1.76379 12.1658 6.90922H15.197C15.197 -1.70489 0.77478 -2.07994 0.77478 6.90926Z"/>
<path d="M0.77478 13.5001H3.86853V15.3833H0.77478V13.5001Z"/>
<path d="M0.77478 10.6754H3.86853V12.5586H0.77478V10.6754Z"/>
<path d="M0.77478 7.85071H3.86853V9.73386H0.77478V7.85071Z"/>
<path d="M12.1185 13.5001H15.2123V15.3833H12.1185V13.5001Z"/>
<path d="M12.1185 10.6754H15.2123V12.5586H12.1185V10.6754Z"/>
<path d="M12.1185 7.85071H15.2123V9.73386H12.1185V7.85071Z"/>
</svg>
