<svg xmlns="http://www.w3.org/2000/svg" viewBox="0 0 478.8 478.8"><path fill="#dddedc" d="M239.3 0a239.3 239.3 0 1 1 .2 478.7A239.3 239.3 0 0 1 239.3 0zM82.5 393.7l98.6-102.1c7.5 4.5 14.1 9.1 21.1 12.5 7.1 3.5 14.6 5.9 22.4 9l-27 143 19.4 2.6c4.6-48.8 9.2-96.7 13.9-144.5l14.1-1.1c3.8 48.8 7.6 97.1 11.2 145.6 69-2.5 157.1-51.2 190.4-145.6 30.7-86.9 1.7-176.8-52.4-228l-95.6 99.2-44-21.8c8.6-45.8 17.3-92.2 26.4-139.2l-19.5-2.7-13.7 142.1-14 1.1c-1.8-23.9-3.6-47.7-5.6-71.4-2-23.7-3.9-47.4-5.6-71.5-68.8 2.9-152 49.4-187.3 137a219.9 219.9 0 0 0 47.2 235.8z"/><path class="st0" d="M238.7 184.8a55.8 55.8 0 0 1 55.6 55.4 55.4 55.4 0 1 1-55.6-55.4zm.6 19.4a36.1 36.1 0 1 0-1.3 72.2 36.1 36.1 0 0 0 1.3-72.2z" fill="#dddedc"/></svg>
