<svg viewBox="0 0 17 17" xmlns="http://www.w3.org/2000/svg">
<path d="M7.00158 0.497378C7.78327 -0.0632536 8.81933 -0.0632536 9.60103 0.497378L10.3898 1.06242C10.5808 1.20018 10.8088 1.27312 11.0411 1.27312L12.0052 1.27091C12.9836 1.26944 13.8537 1.91256 14.1685 2.87101L14.4293 3.66589C14.5084 3.90605 14.6602 4.1138 14.8626 4.25819L15.5352 4.73705C16.3789 5.33672 16.7317 6.44471 16.3989 7.44506L16.1644 8.15008C16.0818 8.39834 16.0818 8.66798 16.1644 8.91624L16.3989 9.62126C16.7317 10.6217 16.3789 11.7297 15.5352 12.3293L14.8626 12.8081C14.6602 12.9525 14.5084 13.1603 14.4293 13.4004L14.1685 14.1953C13.8536 15.1537 12.9835 15.7969 12.0052 15.7954L11.0411 15.7932C10.8088 15.7932 10.5808 15.8661 10.3898 16.0039L9.60103 16.5689C8.81933 17.1296 7.78327 17.1296 7.00158 16.5689L6.21348 16.0039C6.0225 15.8661 5.79448 15.7932 5.56148 15.7932L4.5981 15.7954C3.61973 15.7969 2.74893 15.1538 2.4348 14.1953L2.17329 13.4004C2.09419 13.1603 1.94313 12.9525 1.74076 12.8081L1.06738 12.3293C0.223699 11.7296 -0.129024 10.6216 0.203742 9.62126L0.438186 8.91624C0.521556 8.66798 0.521556 8.39834 0.438186 8.15008L0.203742 7.44506C-0.129024 6.44463 0.223695 5.33659 1.06738 4.73705L1.74076 4.25819C1.94313 4.1138 2.09419 3.90605 2.17329 3.66589L2.4348 2.87101C2.74905 1.91258 3.61981 1.26944 4.5981 1.27091L5.56148 1.27312C5.79448 1.27312 6.0225 1.20019 6.21348 1.06242L7.00158 0.497378ZM10.8666 8.53315C9.76572 8.53315 8.87136 9.45696 8.87136 10.596C8.87136 11.735 9.76563 12.6588 10.8666 12.6588C11.9677 12.6588 12.8619 11.735 12.8619 10.596C12.8619 9.45696 11.9677 8.53315 10.8666 8.53315ZM5.45103 4.40767C4.3501 4.40767 3.45574 5.33148 3.45574 6.47051C3.45574 7.60954 4.35001 8.53334 5.45103 8.53334C6.55205 8.53334 7.44631 7.60954 7.44631 6.47051C7.44631 5.33148 6.55205 4.40767 5.45103 4.40767ZM9.66013 4.92116L5.95486 11.5566C5.79739 11.838 5.89145 12.199 6.16364 12.3611C6.43656 12.5239 6.78499 12.4274 6.94247 12.1452L10.6477 5.50978C10.8052 5.22836 10.7119 4.86739 10.439 4.70531C10.1668 4.5425 9.81762 4.63901 9.66013 4.92116Z"/>
<path d="M10.8664 9.71197C11.3381 9.71197 11.7215 10.1076 11.7215 10.596C11.7215 11.0844 11.3381 11.48 10.8664 11.48C10.3947 11.48 10.0113 11.0844 10.0113 10.596C10.0113 10.1076 10.3947 9.71197 10.8664 9.71197ZM5.45079 5.58649C5.92321 5.58649 6.30587 5.9821 6.30587 6.47052C6.30587 6.95894 5.92321 7.35455 5.45079 7.35455C4.97907 7.35455 4.5957 6.95894 4.5957 6.47052C4.5957 5.9821 4.97907 5.58649 5.45079 5.58649Z"/>
</svg>
