<svg viewBox="0 0 16 17" xmlns="http://www.w3.org/2000/svg">
<path d="M4.1448 4.07756C4.43379 4.07756 4.66823 3.84366 4.66823 3.55413V1.46093C4.66769 1.17194 4.43325 0.9375 4.1448 0.9375H3.88281C3.59381 0.9375 3.35938 1.17194 3.35938 1.46093V3.55413C3.35938 3.84366 3.59381 4.07756 3.88281 4.07756H4.1448Z"/>
<path d="M11.3903 4.07756C11.6793 4.07756 11.9137 3.84366 11.9137 3.55413V1.46093C11.9137 1.17194 11.6793 0.9375 11.3903 0.9375H11.1288C10.8398 0.9375 10.6054 1.17194 10.6054 1.46093V3.55413C10.6054 3.84366 10.8398 4.07756 11.1288 4.07756H11.3903Z"/>
<path d="M14.5713 2.34888H12.2642V3.55402C12.2642 4.0364 11.8721 4.42857 11.3897 4.42857H11.1282C10.6459 4.42857 10.2537 4.0364 10.2537 3.55402V2.34888H5.01882V3.55402C5.01882 4.0364 4.62665 4.42857 4.14427 4.42857H3.88283C3.40045 4.42857 3.00828 4.0364 3.00828 3.55402V2.34888H0.701714C0.354919 2.34888 0.0734863 2.63031 0.0734863 2.9771V15.4347C0.0734863 15.781 0.354919 16.0624 0.701714 16.0624H14.5719C14.9187 16.0624 15.2001 15.781 15.2001 15.4347V2.9771C15.1996 2.63031 14.9181 2.34888 14.5713 2.34888ZM14.2575 15.1203H1.01556V5.65477H14.258L14.2575 15.1203Z"/>
<path d="M4.56455 7.99382H5.91175C6.04194 7.99382 6.14781 7.88795 6.14781 7.75776V6.73466C6.14781 6.60502 6.04194 6.49915 5.91175 6.49915H4.56455C4.43437 6.49915 4.32849 6.60502 4.32849 6.73466V7.75776C4.32849 7.88795 4.43383 7.99382 4.56455 7.99382Z"/>
<path d="M6.98509 7.99382H8.30853C8.43871 7.99382 8.54405 7.88795 8.54405 7.75776V6.73466C8.54405 6.60502 8.43871 6.49915 8.30853 6.49915H6.98509C6.85491 6.49915 6.74957 6.60502 6.74957 6.73466V7.75776C6.74957 7.88795 6.85491 7.99382 6.98509 7.99382Z"/>
<path d="M9.38353 7.99382H10.707C10.8371 7.99382 10.9425 7.88795 10.9425 7.75776V6.73466C10.9425 6.60502 10.8371 6.49915 10.707 6.49915H9.38353C9.25334 6.49915 9.14801 6.60502 9.14801 6.73466V7.75776C9.14801 7.88795 9.25388 7.99382 9.38353 7.99382Z"/>
<path d="M11.7829 7.99382H13.1053C13.2355 7.99382 13.3414 7.88795 13.3414 7.75776V6.73466C13.3414 6.60502 13.2355 6.49915 13.1053 6.49915H11.7829C11.6528 6.49915 11.5474 6.60502 11.5474 6.73466V7.75776C11.5474 7.88795 11.6528 7.99382 11.7829 7.99382Z"/>
<path d="M2.16782 10.0869H3.49018C3.62036 10.0869 3.7257 9.98211 3.7257 9.85085V8.82829C3.7257 8.69865 3.62036 8.59277 3.49018 8.59277H2.16782C2.03764 8.59277 1.93176 8.69865 1.93176 8.82829V9.85085C1.93176 9.98211 2.03764 10.0869 2.16782 10.0869Z"/>
<path d="M4.56455 10.0869H5.91175C6.04194 10.0869 6.14781 9.98211 6.14781 9.85085V8.82829C6.14781 8.69865 6.04194 8.59277 5.91175 8.59277H4.56455C4.43437 8.59277 4.32849 8.69865 4.32849 8.82829V9.85085C4.32849 9.98211 4.43383 10.0869 4.56455 10.0869Z"/>
<path d="M6.98509 10.0869H8.30853C8.43871 10.0869 8.54405 9.98211 8.54405 9.85085V8.82829C8.54405 8.69865 8.43871 8.59277 8.30853 8.59277H6.98509C6.85491 8.59277 6.74957 8.69865 6.74957 8.82829V9.85085C6.74957 9.98211 6.85491 10.0869 6.98509 10.0869Z"/>
<path d="M9.38353 10.0869H10.707C10.8371 10.0869 10.9425 9.98211 10.9425 9.85085V8.82829C10.9425 8.69865 10.8371 8.59277 10.707 8.59277H9.38353C9.25334 8.59277 9.14801 8.69865 9.14801 8.82829V9.85085C9.14801 9.98211 9.25388 10.0869 9.38353 10.0869Z"/>
<path d="M11.7829 10.0869H13.1053C13.2355 10.0869 13.3414 9.98211 13.3414 9.85085V8.82829C13.3414 8.69811 13.2355 8.59277 13.1053 8.59277H11.7829C11.6528 8.59277 11.5474 8.69811 11.5474 8.82829V9.85085C11.5474 9.98211 11.6528 10.0869 11.7829 10.0869Z"/>
<path d="M2.16782 12.1819H3.49018C3.62036 12.1819 3.7257 12.0766 3.7257 11.9464V10.9233C3.7257 10.7931 3.62036 10.6873 3.49018 10.6873H2.16782C2.03764 10.6873 1.93176 10.7926 1.93176 10.9233V11.9464C1.93176 12.0766 2.03764 12.1819 2.16782 12.1819Z"/>
<path d="M4.56455 12.1819H5.91175C6.04194 12.1819 6.14781 12.0766 6.14781 11.9464V10.9233C6.14781 10.7931 6.04194 10.6873 5.91175 10.6873H4.56455C4.43437 10.6873 4.32849 10.7926 4.32849 10.9233V11.9464C4.32849 12.0766 4.43383 12.1819 4.56455 12.1819Z"/>
<path d="M6.98509 12.1819H8.30853C8.43871 12.1819 8.54405 12.0766 8.54405 11.9464V10.9233C8.54405 10.7931 8.43871 10.6873 8.30853 10.6873H6.98509C6.85491 10.6873 6.74957 10.7926 6.74957 10.9233V11.9464C6.74957 12.0766 6.85491 12.1819 6.98509 12.1819Z"/>
<path d="M9.3737 12.1819H10.6966C10.8268 12.1819 10.9321 12.0766 10.9321 11.9464V10.9233C10.9321 10.7931 10.8268 10.6873 10.6966 10.6873H9.3737C9.24352 10.6873 9.13818 10.7926 9.13818 10.9233V11.9464C9.13818 12.0766 9.24352 12.1819 9.3737 12.1819Z"/>
<path d="M11.7727 12.1819H13.095C13.2252 12.1819 13.3306 12.0766 13.3306 11.9464V10.9233C13.3306 10.7931 13.2252 10.6873 13.095 10.6873H11.7727C11.6425 10.6873 11.5366 10.7926 11.5366 10.9233V11.9464C11.5372 12.0766 11.643 12.1819 11.7727 12.1819Z"/>
<path d="M2.16782 14.2761H3.49018C3.62036 14.2761 3.7257 14.1708 3.7257 14.0401V13.018C3.7257 12.8873 3.62036 12.782 3.49018 12.782H2.16782C2.03764 12.782 1.93176 12.8868 1.93176 13.018V14.0401C1.93176 14.1708 2.03764 14.2761 2.16782 14.2761Z"/>
<path d="M4.56455 14.2761H5.91175C6.04194 14.2761 6.14781 14.1708 6.14781 14.0401V13.018C6.14781 12.8873 6.04194 12.782 5.91175 12.782H4.56455C4.43437 12.782 4.32849 12.8868 4.32849 13.018V14.0401C4.32849 14.1708 4.43383 14.2761 4.56455 14.2761Z"/>
<path d="M6.98509 14.2761H8.30853C8.43871 14.2761 8.54405 14.1708 8.54405 14.0401V13.018C8.54405 12.8873 8.43871 12.782 8.30853 12.782H6.98509C6.85491 12.782 6.74957 12.8868 6.74957 13.018V14.0401C6.74957 14.1708 6.85491 14.2761 6.98509 14.2761Z"/>
<path d="M10.707 12.7831H9.38353C9.25334 12.7831 9.14801 12.8879 9.14801 13.0191V14.0412C9.14801 14.1713 9.25334 14.2772 9.38353 14.2772H10.707C10.8371 14.2772 10.9425 14.1719 10.9425 14.0412V13.0191C10.9425 12.8879 10.8371 12.7831 10.707 12.7831Z"/>
</svg>
