<svg viewBox="0 0 16 16" xmlns="http://www.w3.org/2000/svg">
<path d="M4.14479 4.01506C4.43379 4.01506 4.66823 3.78116 4.66823 3.49163V1.39843C4.66769 1.10944 4.43325 0.875 4.14479 0.875H3.88281C3.59381 0.875 3.35938 1.10944 3.35938 1.39843V3.49163C3.35938 3.78116 3.59381 4.01506 3.88281 4.01506H4.14479Z"/>
<path d="M11.3903 4.01506C11.6793 4.01506 11.9137 3.78116 11.9137 3.49163V1.39843C11.9137 1.10944 11.6793 0.875 11.3903 0.875H11.1288C10.8398 0.875 10.6054 1.10944 10.6054 1.39843V3.49163C10.6054 3.78116 10.8398 4.01506 11.1288 4.01506H11.3903Z"/>
<path d="M14.5713 2.28638H12.2642V3.49152C12.2642 3.97389 11.8721 4.36606 11.3897 4.36606H11.1282C10.6459 4.36606 10.2537 3.97389 10.2537 3.49152V2.28638H5.01882V3.49152C5.01882 3.97389 4.62665 4.36606 4.14427 4.36606H3.88283C3.40045 4.36606 3.00828 3.97389 3.00828 3.49152V2.28638H0.701714C0.354919 2.28638 0.0734863 2.56781 0.0734863 2.9146V15.3722C0.0734863 15.7185 0.354919 15.9999 0.701714 15.9999H14.5719C14.9187 15.9999 15.2001 15.7185 15.2001 15.3722V2.9146C15.1996 2.56781 14.9181 2.28638 14.5713 2.28638ZM14.2575 15.0578H1.01556V5.59227H14.258L14.2575 15.0578Z"/>
<path d="M10.2678 7.85005C9.61053 7.19284 8.7366 6.83081 7.80698 6.83081C6.87737 6.83081 6.00344 7.19284 5.34613 7.85005C3.98928 9.2069 3.98928 11.4148 5.34613 12.7716C6.00344 13.429 6.87737 13.791 7.80698 13.791C8.7366 13.791 9.61053 13.429 10.2678 12.7717C11.6247 11.4148 11.6247 9.207 10.2678 7.85005Z"/>
</svg>
