<svg viewBox="0 0 16 16" xmlns="http://www.w3.org/2000/svg">
<path d="M4.14479 4.01506C4.43379 4.01506 4.66823 3.78116 4.66823 3.49163V1.39843C4.66769 1.10944 4.43325 0.875 4.14479 0.875H3.88281C3.59381 0.875 3.35938 1.10944 3.35938 1.39843V3.49163C3.35938 3.78116 3.59381 4.01506 3.88281 4.01506H4.14479Z"/>
<path d="M11.3903 4.01506C11.6793 4.01506 11.9137 3.78116 11.9137 3.49163V1.39843C11.9137 1.10944 11.6793 0.875 11.3903 0.875H11.1288C10.8398 0.875 10.6054 1.10944 10.6054 1.39843V3.49163C10.6054 3.78116 10.8398 4.01506 11.1288 4.01506H11.3903Z"/>
<path d="M14.5713 2.28638H12.2642V3.49152C12.2642 3.97389 11.8721 4.36606 11.3897 4.36606H11.1282C10.6459 4.36606 10.2537 3.97389 10.2537 3.49152V2.28638H5.01882V3.49152C5.01882 3.97389 4.62665 4.36606 4.14427 4.36606H3.88283C3.40045 4.36606 3.00828 3.97389 3.00828 3.49152V2.28638H0.701714C0.354919 2.28638 0.0734863 2.56781 0.0734863 2.9146V15.3722C0.0734863 15.7185 0.354919 15.9999 0.701714 15.9999H14.5719C14.9187 15.9999 15.2001 15.7185 15.2001 15.3722V2.9146C15.1996 2.56781 14.9181 2.28638 14.5713 2.28638ZM14.2575 15.0578H1.01556V5.59227H14.258L14.2575 15.0578Z"/>
<path d="M3.83337 11.1053V9.67911C3.83337 9.61606 3.80832 9.5556 3.76375 9.51103C3.71917 9.46645 3.65871 9.44141 3.59567 9.44141H2.16946C2.10642 9.44141 2.04596 9.46645 2.00138 9.51103C1.95681 9.5556 1.93176 9.61606 1.93176 9.67911V11.1053C1.93176 11.1684 1.95681 11.2288 2.00138 11.2734C2.04596 11.318 2.10642 11.343 2.16946 11.343H3.59567C3.65871 11.343 3.71917 11.318 3.76375 11.2734C3.80832 11.2288 3.83337 11.1684 3.83337 11.1053Z"/>
<path d="M6.21037 11.1053V9.67911C6.21037 9.61606 6.18533 9.5556 6.14075 9.51103C6.09618 9.46645 6.03572 9.44141 5.97267 9.44141H4.54647C4.48343 9.44141 4.42297 9.46645 4.37839 9.51103C4.33381 9.5556 4.30877 9.61606 4.30877 9.67911V11.1053C4.30877 11.1684 4.33381 11.2288 4.37839 11.2734C4.42297 11.318 4.48343 11.343 4.54647 11.343H5.97267C6.03572 11.343 6.09618 11.318 6.14075 11.2734C6.18533 11.2288 6.21037 11.1684 6.21037 11.1053Z"/>
<path d="M8.58738 11.1053V9.67911C8.58738 9.61606 8.56234 9.5556 8.51776 9.51103C8.47318 9.46645 8.41272 9.44141 8.34968 9.44141H6.92348C6.86043 9.44141 6.79997 9.46645 6.7554 9.51103C6.71082 9.5556 6.68578 9.61606 6.68578 9.67911V11.1053C6.68578 11.1684 6.71082 11.2288 6.7554 11.2734C6.79997 11.318 6.86043 11.343 6.92348 11.343H8.34968C8.41272 11.343 8.47318 11.318 8.51776 11.2734C8.56234 11.2288 8.58738 11.1684 8.58738 11.1053Z"/>
<path d="M10.9644 11.1053V9.67911C10.9644 9.61606 10.9393 9.5556 10.8948 9.51103C10.8502 9.46645 10.7897 9.44141 10.7267 9.44141H9.30048C9.23744 9.44141 9.17698 9.46645 9.1324 9.51103C9.08782 9.5556 9.06278 9.61606 9.06278 9.67911V11.1053C9.06278 11.1684 9.08782 11.2288 9.1324 11.2734C9.17698 11.318 9.23744 11.343 9.30048 11.343H10.7267C10.7897 11.343 10.8502 11.318 10.8948 11.2734C10.9393 11.2288 10.9644 11.1684 10.9644 11.1053Z"/>
<path d="M13.3414 11.1053V9.67911C13.3414 9.61606 13.3163 9.5556 13.2718 9.51103C13.2272 9.46645 13.1667 9.44141 13.1037 9.44141H11.6775C11.6144 9.44141 11.554 9.46645 11.5094 9.51103C11.4648 9.5556 11.4398 9.61606 11.4398 9.67911V11.1053C11.4398 11.1684 11.4648 11.2288 11.5094 11.2734C11.554 11.318 11.6144 11.343 11.6775 11.343H13.1037C13.1667 11.343 13.2272 11.318 13.2718 11.2734C13.3163 11.2288 13.3414 11.1684 13.3414 11.1053Z"/>
</svg>
