<svg viewBox="0 0 16 16" xmlns="http://www.w3.org/2000/svg">
<path d="M4.14479 3.14055C4.43379 3.14055 4.66823 2.90665 4.66823 2.61711V0.523921C4.66769 0.234926 4.43325 0.000488281 4.14479 0.000488281H3.88281C3.59381 0.000488281 3.35938 0.234926 3.35938 0.523921V2.61711C3.35938 2.90665 3.59381 3.14055 3.88281 3.14055H4.14479Z"/>
<path d="M11.3903 3.14055C11.6793 3.14055 11.9137 2.90665 11.9137 2.61711V0.523921C11.9137 0.234926 11.6793 0.000488281 11.3903 0.000488281H11.1288C10.8398 0.000488281 10.6054 0.234926 10.6054 0.523921V2.61711C10.6054 2.90665 10.8398 3.14055 11.1288 3.14055H11.3903Z"/>
<path d="M14.5713 1.41187H12.2642V2.617C12.2642 3.09938 11.8721 3.49155 11.3897 3.49155H11.1282C10.6459 3.49155 10.2537 3.09938 10.2537 2.617V1.41187H5.01882V2.617C5.01882 3.09938 4.62665 3.49155 4.14427 3.49155H3.88283C3.40045 3.49155 3.00828 3.09938 3.00828 2.617V1.41187H0.701714C0.354919 1.41187 0.0734863 1.6933 0.0734863 2.04009V14.4977C0.0734863 14.8439 0.354919 15.1254 0.701714 15.1254H14.5719C14.9187 15.1254 15.2001 14.8439 15.2001 14.4977V2.04009C15.1996 1.6933 14.9181 1.41187 14.5713 1.41187ZM14.2575 14.1833H1.01556V4.71776H14.258L14.2575 14.1833Z"/>
<path d="M10.2678 6.97554C9.61053 6.31832 8.73659 5.9563 7.80698 5.9563C6.87737 5.9563 6.00344 6.31832 5.34613 6.97554C3.98928 8.33239 3.98928 10.5403 5.34613 11.897C6.00344 12.5545 6.87737 12.9165 7.80698 12.9165C8.73659 12.9165 9.61053 12.5545 10.2678 11.8971C11.6247 10.5403 11.6247 8.33248 10.2678 6.97554ZM7.77323 9.43629L9.71121 11.3743C9.19978 11.8768 8.52474 12.1537 7.80698 12.1537C7.08122 12.1537 6.39874 11.871 5.8855 11.3578C4.82612 10.2983 4.82612 8.57447 5.8855 7.51481C6.39874 7.00176 7.08112 6.71906 7.80698 6.71906C8.52483 6.71906 9.19978 6.99594 9.71121 7.49841L7.77323 9.43629Z"/>
</svg>
