<svg viewBox="0 0 18 17" xmlns="http://www.w3.org/2000/svg">
<path d="M1.02032 2.15387L2.06782 3.07694C0.778594 4.53848 0.0534058 6.46156 0.0534058 8.46156C0.0534058 13.1539 4.00165 16.9231 8.91681 16.9231C11.0118 16.9231 13.0262 16.2308 14.5572 15L15.6047 16L16.8939 14.7692L2.39012 0.923096L1.02032 2.15387ZM5.93548 6.84617C6.01606 8.15386 7.14413 9.15386 8.43335 9.23079L9.72258 10.4616C9.56142 10.6923 9.23912 10.9231 8.91681 10.8462C8.43335 10.8462 7.94989 10.5385 7.94989 10.0769H6.01606C6.09664 11.1539 6.9024 12.0769 7.94989 12.3077V13.2308H9.9643V12.2308C10.3672 12.1539 10.7701 11.9231 11.0924 11.6923L13.1874 13.6923C12.0593 14.5385 10.6089 15.0769 8.99739 15.0769C5.2103 15.0769 2.06782 12.1539 2.06782 8.46156C2.06782 6.9231 2.63185 5.53848 3.51819 4.46156L5.93548 6.84617Z"/>
<path d="M7.94994 3.76923V4.6923C7.78879 4.6923 7.62763 4.76923 7.54706 4.84615L8.83628 6.07692H8.91686C9.40032 6.07692 9.88377 6.38461 9.88377 6.84615H11.8982C11.8176 5.76923 11.0118 4.92307 9.96435 4.6923V3.76923H7.94994Z"/>
<path d="M8.91686 1.84614C12.704 1.84614 15.8464 4.76921 15.8464 8.46152C15.8464 9.69229 15.5241 10.8461 14.8795 11.8461L16.3299 13.2308C17.2968 11.8461 17.8608 10.2308 17.8608 8.53844C17.8608 3.84613 13.9126 0.0769043 8.99744 0.0769043C7.14418 0.0769043 5.45207 0.615366 4.08228 1.53844L5.53265 2.92306C6.41899 2.23075 7.62764 1.84614 8.91686 1.84614Z"/>
</svg>
