<svg viewBox="0 0 16 12" xmlns="http://www.w3.org/2000/svg">
<path d="M4.12892 8.62844C4.14236 6.74488 5.78275 5.22636 7.79197 5.22636C9.80901 5.22636 11.455 6.75695 11.455 8.65089V10.6259C11.455 10.7147 11.3927 10.7942 11.2987 10.8259C9.18761 11.5455 6.85128 11.5389 4.30006 10.8303C4.19872 10.8024 4.12911 10.7202 4.12911 10.6259L4.12892 8.62844ZM10.7223 6.01929C11.4464 6.71144 11.8933 7.65131 11.8933 8.68863V9.54792C12.947 9.7315 13.9445 9.57915 14.8798 9.07771C15.0275 8.99825 15.1178 8.85741 15.1178 8.70451V7.40132C15.1178 6.20117 14.0067 5.22624 12.6374 5.22624C11.8664 5.22624 11.1772 5.5354 10.7223 6.01929ZM3.6907 9.54132V8.6645C3.69802 7.63642 4.14307 6.70588 4.86163 6.01929C4.40619 5.5354 3.71756 5.22632 2.94649 5.22632C1.58203 5.22632 0.47466 6.19411 0.466064 7.3871V8.70452C0.466064 8.86729 0.568628 9.01635 0.732236 9.09197C1.70048 9.53751 2.6864 9.69696 3.6907 9.54132ZM7.79197 0.403687C6.44339 0.403687 5.34999 1.38682 5.34999 2.59575C5.34999 3.80467 6.44339 4.78781 7.79197 4.78781C9.14055 4.78781 10.234 3.80467 10.234 2.59575C10.234 1.38682 9.14055 0.403687 7.79197 0.403687ZM12.6759 1.27284C11.5972 1.27284 10.7223 2.05924 10.7223 3.02649C10.7223 3.99373 11.5972 4.78014 12.6759 4.78014C13.7547 4.78014 14.6295 3.99373 14.6295 3.02649C14.6295 2.05924 13.7547 1.27284 12.6759 1.27284ZM2.90801 1.27284C1.82928 1.27284 0.954429 2.05924 0.954429 3.02649C0.954429 3.99373 1.82928 4.78014 2.90801 4.78014C3.98675 4.78014 4.8616 3.99373 4.8616 3.02649C4.8616 2.05924 3.98675 1.27284 2.90801 1.27284Z"/>
</svg>
