<svg viewBox="0 0 18 20" xmlns="http://www.w3.org/2000/svg">
<path d="M7.94519 15.1414C5.55193 15.1414 3.60455 13.1102 3.60455 10.613C3.60455 8.11595 5.55173 6.08453 7.94519 6.08453C10.3389 6.08453 12.286 8.11595 12.286 10.613C12.286 13.1102 10.3389 15.1414 7.94519 15.1414ZM7.94519 6.27201C5.65083 6.27201 3.78405 8.21935 3.78405 10.613C3.78405 13.0066 5.65083 14.9539 7.94519 14.9539C10.2398 14.9539 12.1063 13.0066 12.1063 10.613C12.1063 8.21935 10.2398 6.27201 7.94519 6.27201Z"/>
<path d="M7.47894 0.674791V5.62277C7.47894 5.7113 7.54793 5.78306 7.63239 5.78306H8.25818C8.34284 5.78306 8.41162 5.7113 8.41162 5.62277V0.674791C8.41162 0.586044 8.34284 0.514282 8.25818 0.514282H7.63259C7.54773 0.514282 7.47894 0.586044 7.47894 0.674791Z"/>
<path d="M7.47894 15.603V19.1322C7.47894 19.2206 7.54793 19.2925 7.63239 19.2925H8.25818C8.34284 19.2925 8.41162 19.2206 8.41162 19.1322V15.603C8.41162 15.5146 8.34284 15.4429 8.25818 15.4429H7.63259C7.54773 15.4429 7.47894 15.5146 7.47894 15.603Z"/>
<path d="M15.9275 10.1266H12.7285C12.6437 10.1266 12.5751 10.1985 12.5751 10.2869V10.9393C12.5751 11.0278 12.6437 11.0996 12.7285 11.0996H15.9275C16.0125 11.0996 16.0811 11.0278 16.0811 10.9393V10.2869C16.0809 10.1983 16.0125 10.1266 15.9275 10.1266Z"/>
<path d="M3.16216 10.1266H1.85767C1.77301 10.1266 1.70422 10.1985 1.70422 10.2869V10.9393C1.70422 11.0278 1.77301 11.0996 1.85767 11.0996H3.16216C3.24702 11.0996 3.31561 11.0278 3.31561 10.9393V10.2869C3.31561 10.1983 3.24682 10.1266 3.16216 10.1266Z"/>
<path d="M1.30736 4.36799L4.23788 7.42531C4.29771 7.48773 4.39519 7.48752 4.45503 7.42531L4.89725 6.96395C4.95729 6.90132 4.95688 6.79984 4.89725 6.7372L1.96672 3.68031C1.90689 3.61768 1.80941 3.61746 1.74958 3.68031L1.30736 4.14145C1.24773 4.20388 1.24773 4.30536 1.30736 4.36799Z"/>
<path d="M11.0021 14.4822L12.9355 16.4992C12.9955 16.5618 13.0928 16.5618 13.1528 16.4992L13.5949 16.0378C13.6551 15.9752 13.6551 15.8739 13.5949 15.8113L11.6617 13.7945C11.6017 13.7319 11.5046 13.7317 11.4446 13.7943L11.0021 14.2557C10.9423 14.3183 10.9423 14.4196 11.0021 14.4822Z"/>
<path d="M11.4722 6.24717L11.0021 6.73719C10.9423 6.79982 10.9425 6.90131 11.0021 6.96394L11.4446 7.4253C11.5046 7.48772 11.6017 7.48772 11.6615 7.4253L12.1316 6.93485C12.1914 6.87243 12.1916 6.77116 12.1316 6.70853L11.6894 6.24717C11.6291 6.18454 11.5321 6.18454 11.4722 6.24717Z"/>
<path d="M4.23792 13.7945L2.71567 15.3824C2.65584 15.4451 2.65604 15.5463 2.71587 15.609L3.1579 16.0705C3.21813 16.133 3.31521 16.133 3.37504 16.0701L4.89708 14.4822C4.95691 14.4196 4.95732 14.3183 4.89729 14.2559L4.45506 13.7943C4.39523 13.7319 4.29795 13.7319 4.23792 13.7945Z"/>
<path d="M11.051 17.2726L10.1704 15.0355C10.1384 14.9537 10.0485 14.9147 9.97012 14.9482L9.39175 15.1958C9.31299 15.2295 9.27575 15.3234 9.30811 15.4049L10.1885 17.642C10.2206 17.724 10.3104 17.7631 10.3887 17.7295L10.9673 17.4817C11.0457 17.4482 11.0833 17.3546 11.051 17.2726Z"/>
<path d="M6.53672 5.80322L6.13866 4.79197C6.1065 4.71023 6.01655 4.67116 5.9382 4.70471L5.35983 4.95248C5.28128 4.98603 5.24383 5.07966 5.27599 5.1614L5.67405 6.17265C5.70641 6.25439 5.79595 6.29367 5.8745 6.25991L6.45288 6.01214C6.53163 5.9788 6.56908 5.88496 6.53672 5.80322Z"/>
<path d="M2.34954 13.5174L3.67479 12.9495C3.75314 12.9162 3.79079 12.8221 3.75843 12.7404L3.52074 12.1368C3.48878 12.0548 3.39883 12.0159 3.32048 12.0495L1.99503 12.6174C1.91668 12.651 1.87903 12.7444 1.91139 12.8264L2.14888 13.43C2.18124 13.5119 2.27078 13.551 2.34954 13.5174Z"/>
<path d="M12.5242 9.15865L17.1367 7.18286C17.2155 7.1491 17.2527 7.05526 17.2204 6.97352L16.9831 6.37012C16.9507 6.28817 16.861 6.2491 16.7828 6.28265L12.1699 8.25886C12.0913 8.29241 12.0539 8.38604 12.086 8.46799L12.3237 9.0716C12.3559 9.15313 12.4456 9.1922 12.5242 9.15865Z"/>
<path d="M16.3361 13.7504L12.5126 12.0837C12.4343 12.0495 12.3441 12.0882 12.3117 12.1697L12.0704 12.7718C12.0378 12.8536 12.0747 12.9472 12.1526 12.9814L15.9765 14.6482C16.0549 14.6824 16.145 14.6438 16.1776 14.5623L16.419 13.9601C16.4515 13.8786 16.4147 13.7846 16.3361 13.7504Z"/>
<path d="M3.68537 8.23614L1.16267 7.13635C1.08453 7.10217 0.994371 7.14103 0.96181 7.22234L0.720856 7.82446C0.688091 7.9062 0.725129 7.99983 0.80348 8.03402L3.32617 9.1338C3.40432 9.16798 3.49427 9.12934 3.52704 9.0476L3.7682 8.44569C3.80096 8.36416 3.76372 8.27032 3.68537 8.23614Z"/>
<path d="M6.2494 16.0402L6.50562 15.4007C6.53838 15.3189 6.50114 15.2251 6.42299 15.1911L5.84584 14.9395C5.7677 14.9053 5.67775 14.944 5.64518 15.0253L5.38876 15.6654C5.356 15.7472 5.39304 15.8408 5.47139 15.875L6.04833 16.1266C6.12669 16.1607 6.21664 16.1219 6.2494 16.0402Z"/>
<path d="M10.1933 6.19196L11.0235 4.11977C11.056 4.03803 11.0192 3.94419 10.9408 3.91022L10.3637 3.65863C10.2853 3.62445 10.1956 3.6633 10.163 3.74483L9.33332 5.81701C9.30055 5.89875 9.33739 5.99238 9.41553 6.02657L9.99248 6.27837C10.0706 6.31213 10.1606 6.27349 10.1933 6.19196Z"/>
</svg>
