<svg viewBox="0 0 15 15" xmlns="http://www.w3.org/2000/svg">
<path d="M7.5 0C3.36375 0 0 3.27064 0 7.29239C0 11.3141 3.36375 14.5848 7.5 14.5848C11.6362 14.5848 15 11.3141 15 7.29239C15 3.27064 11.6362 0 7.5 0ZM7.41937 3.29069C8.00625 3.29069 8.4825 3.7574 8.4825 4.3335C8.4825 4.9096 8.00625 5.37631 7.41937 5.37631C6.8325 5.37631 6.35625 4.9096 6.35625 4.3335C6.35625 3.7574 6.8325 3.29069 7.41937 3.29069ZM8.9625 11.1008C8.9625 11.2084 8.87438 11.2941 8.76562 11.2941H6.23438C6.12375 11.2941 6.0375 11.2066 6.0375 11.1008V10.3497C6.0375 10.2422 6.12563 10.1565 6.23438 10.1565H6.38625C6.495 10.1565 6.58125 10.069 6.58125 9.96322V7.25593C6.58125 7.14836 6.49313 7.06268 6.38625 7.06268H6.23438C6.12375 7.06268 6.0375 6.97699 6.0375 6.87125V6.11831C6.0375 6.01075 6.12563 5.92507 6.23438 5.92507H8.22187C8.33062 5.92507 8.41875 6.01257 8.41875 6.11831V9.96322C8.41875 10.069 8.50688 10.1565 8.61375 10.1565H8.76562C8.87625 10.1565 8.9625 10.244 8.9625 10.3497V11.1008Z"/>
</svg>
