<svg viewBox="0 0 17 17" xmlns="http://www.w3.org/2000/svg">
<path d="M8.5 0C6.81886 0 5.17547 0.498516 3.77766 1.43251C2.37984 2.3665 1.29037 3.69402 0.647028 5.24719C0.00368289 6.80036 -0.164645 8.50943 0.163329 10.1583C0.491303 11.8071 1.30085 13.3217 2.4896 14.5104C3.67834 15.6992 5.1929 16.5087 6.84173 16.8367C8.49057 17.1646 10.1996 16.9963 11.7528 16.353C13.306 15.7096 14.6335 14.6202 15.5675 13.2223C16.5015 11.8245 17 10.1811 17 8.5C17 6.24566 16.1045 4.08365 14.5104 2.48959C12.9164 0.895533 10.7543 0 8.5 0ZM8.5 13.2812C7.02419 13.2988 5.57764 12.8692 4.35063 12.049C3.12362 11.2288 2.17363 10.0563 1.62563 8.68594C1.58309 8.56563 1.58309 8.43437 1.62563 8.31406C2.17363 6.94365 3.12362 5.77123 4.35063 4.95101C5.57764 4.13079 7.02419 3.7012 8.5 3.71875C9.97581 3.7012 11.4224 4.13079 12.6494 4.95101C13.8764 5.77123 14.8264 6.94365 15.3744 8.31406C15.4169 8.43437 15.4169 8.56563 15.3744 8.68594C14.8264 10.0563 13.8764 11.2288 12.6494 12.049C11.4224 12.8692 9.97581 13.2988 8.5 13.2812ZM8.5 5.3125C7.86957 5.3125 7.2533 5.49944 6.72912 5.84969C6.20494 6.19994 5.79639 6.69776 5.55514 7.28019C5.31388 7.86263 5.25076 8.50353 5.37375 9.12185C5.49674 9.74016 5.80032 10.3081 6.2461 10.7539C6.69188 11.1997 7.25984 11.5033 7.87815 11.6263C8.49647 11.7492 9.13737 11.6861 9.71981 11.4449C10.3022 11.2036 10.8001 10.7951 11.1503 10.2709C11.5006 9.7467 11.6875 9.13043 11.6875 8.5C11.6875 7.65462 11.3517 6.84387 10.7539 6.2461C10.1561 5.64832 9.34538 5.3125 8.5 5.3125ZM8.5 10.0937C8.18479 10.0937 7.87665 10.0003 7.61456 9.82515C7.35247 9.65003 7.1482 9.40112 7.02757 9.1099C6.90694 8.81868 6.87538 8.49823 6.93688 8.18907C6.99837 7.87992 7.15016 7.59594 7.37305 7.37305C7.59594 7.15016 7.87992 6.99837 8.18908 6.93687C8.49823 6.87538 8.81868 6.90694 9.1099 7.02757C9.40112 7.14819 9.65003 7.35247 9.82516 7.61456C10.0003 7.87665 10.0938 8.18478 10.0938 8.5C10.0938 8.92269 9.92584 9.32806 9.62695 9.62695C9.32807 9.92584 8.92269 10.0937 8.5 10.0937Z"/>
</svg>
