<svg viewBox="0 0 16 16" xmlns="http://www.w3.org/2000/svg">
<path d="M15.9914 0C13.8282 0.179997 11.9978 0.604787 10.4459 1.19278L8.14189 3.90154L8.86107 1.90158C4.17795 4.31753 2.64038 8.33666 2.13399 10.6454C3.39877 8.57985 8.00671 4.41513 11.0475 4.22473C11.0475 4.22473 5.66356 7.37987 2.03482 12.2862C1.25164 13.3446 0.675648 14.2869 0.334854 14.9613C0.0444593 15.5365 -0.0723382 15.9213 0.0452597 16.0005C0.982843 14.9229 1.83162 13.9102 2.65161 12.9382C2.79801 12.7646 2.9404 12.5966 3.0852 12.4254C7.05953 12.1838 11.0394 9.49823 13.509 6.32308L11.3706 6.2631L14.3298 5.15911C15.449 3.40874 16.0826 1.58717 15.9914 0Z"/>
</svg>
