<svg viewBox="0 0 15 21" xmlns="http://www.w3.org/2000/svg"><path d="M8.19744 4.7342C8.32528 6.23604 8.82179 8.97223 9.85582 8.37532C10.7998 7.83024 10.802 6.40364 10.7545 5.35174C12.4566 7.59118 14.3344 10.576 14.4318 13.3582C14.5081 15.5383 13.6537 17.6129 12.0857 18.9361C10.2101 20.5184 8.72516 20.4782 7.68962 19.7069C6.08308 18.51 5.52366 15.4819 6.41501 12.9654C5.15676 13.9614 4.45793 16.6458 4.73122 18.4692C4.87164 19.4061 4.99294 19.989 4.29612 19.7907C1.62611 19.0307 0.0975893 16.0338 0.00322053 13.3328C-0.157332 8.73543 5.73329 4.99667 6.89012 0.774231C7.56832 1.11673 8.06961 3.23059 8.19744 4.7342Z"/></svg>
