<svg viewBox="0 0 12 7" xmlns="http://www.w3.org/2000/svg">
<path d="M10.0446 0H1.20536C0.542411 0 0 0.542411 0 1.20536V5.22321C0 5.88616 0.542411 6.42857 1.20536 6.42857H4.08616C4.40759 6.42857 4.63603 6.30402 4.86103 6.075L5.19231 5.625C5.40927 5.41205 5.77891 5.41205 5.99588 5.625L6.38897 6.075C6.61397 6.30402 6.84241 6.42857 7.16384 6.42857H10.0446C10.7076 6.42857 11.25 5.88616 11.25 5.22321V1.20536C11.25 0.542411 10.7076 0 10.0446 0ZM3.21429 4.41964C2.55134 4.41964 2.00893 3.87723 2.00893 3.21429C2.00893 2.55134 2.55134 2.00893 3.21429 2.00893C3.87723 2.00893 4.41964 2.55134 4.41964 3.21429C4.41964 3.87723 3.87723 4.41964 3.21429 4.41964ZM8.03571 4.41964C7.37277 4.41964 6.83036 3.87723 6.83036 3.21429C6.83036 2.55134 7.37277 2.00893 8.03571 2.00893C8.69866 2.00893 9.24107 2.55134 9.24107 3.21429C9.24107 3.87723 8.69866 4.41964 8.03571 4.41964Z"/>
</svg>
